<svg width="120" height="120" viewBox="0 0 120 120" fill="none" xmlns="http://www.w3.org/2000/svg">
<path d="M83.99 27.79C83.61 27.79 83.23 27.83 82.85 27.85C74.5 19.31 62.86 14 49.97 14C24.58 14 4 34.58 4 59.98C4 85.38 24.58 105.95 49.97 105.95C62.86 105.95 74.5 100.64 82.85 92.1C83.23 92.11 83.6 92.16 83.99 92.16C101.76 92.16 116.17 77.75 116.17 59.98C116.17 42.21 101.76 27.8 83.99 27.8V27.79ZM49.98 92.15C32.21 92.15 17.8 77.74 17.8 59.97C17.8 42.2 32.21 27.79 49.98 27.79C56.23 27.79 62.05 29.6 66.99 32.69C57.89 38.38 51.81 48.45 51.81 59.98C51.81 71.51 57.88 81.58 66.99 87.27C62.05 90.36 56.23 92.17 49.98 92.17V92.15Z" fill="#0E1131"/>
</svg>
