<svg xmlns="http://www.w3.org/2000/svg" width="500" height="275" fill="none"><g clip-path="url(#a)"><path fill="#1D1D44" d="M141.821 131.79v-2.1h14.689v2.1h-6.161v17.474h-2.368V131.79h-6.16Zm15.674 17.474v-19.585h2.368v8.721h10.446v-8.721h2.368v19.585h-2.368V140.5h-10.446v8.764h-2.368Zm17.229 0v-19.585h11.817v2.1h-9.45v6.621h8.839v2.1h-8.839v6.654h9.6v2.1h-11.967v.01Zm17.217 90.651v23.807h-5.389l-8.604-12.503h-.139v12.503h-6.46v-23.807h5.485l8.464 12.461h.182v-12.461h6.461Zm2.25 23.807v-23.807h17.153v5.207h-10.693v4.093h9.814v5.207h-9.814v4.093h10.65v5.207h-17.11Zm18.889-18.589v-5.207h20.688v5.207h-7.157v18.599h-6.374v-18.599h-7.157Zm28.338 18.589-7.018-23.807h7.211l3.257 14.646h.182l3.857-14.646h5.668l3.857 14.689h.182l3.257-14.689h7.211l-7.018 23.807h-6.182l-4.05-13.296h-.182l-4.05 13.296h-6.182Zm50.516-11.903c0 2.646-.514 4.885-1.542 6.696-1.029 1.821-2.422 3.193-4.168 4.125-1.746.932-3.707 1.403-5.861 1.403-2.153 0-4.125-.471-5.871-1.414-1.746-.943-3.139-2.325-4.157-4.136-1.028-1.821-1.543-4.039-1.543-6.674 0-2.636.515-4.886 1.543-6.697 1.029-1.821 2.411-3.192 4.157-4.125 1.746-.932 3.707-1.403 5.871-1.403 2.165 0 4.104.471 5.861 1.403 1.746.933 3.139 2.315 4.168 4.125 1.028 1.822 1.542 4.05 1.542 6.697Zm-6.653 0c0-1.425-.193-2.625-.568-3.611-.375-.975-.932-1.725-1.66-2.229-.729-.503-1.629-.76-2.7-.76-1.072 0-1.972.257-2.7.76-.729.504-1.286 1.254-1.661 2.229-.375.986-.568 2.186-.568 3.611 0 1.425.193 2.624.568 3.61.375.986.932 1.725 1.661 2.229.728.503 1.628.76 2.7.76 1.071 0 1.971-.257 2.7-.76.728-.504 1.285-1.254 1.66-2.229.375-.975.568-2.185.568-3.61Zm8.807 11.903v-23.807h10.275c1.767 0 3.31.322 4.639.965 1.328.642 2.357 1.564 3.096 2.774.739 1.211 1.104 2.658 1.104 4.35 0 1.693-.375 3.14-1.136 4.318-.761 1.168-1.811 2.057-3.171 2.646-1.361.6-2.947.89-4.757.89h-6.139v-5.025h4.832c.76 0 1.403-.097 1.95-.289.535-.193.953-.493 1.242-.911.29-.418.44-.964.44-1.639s-.15-1.243-.44-1.672c-.289-.428-.707-.75-1.242-.953-.536-.204-1.19-.311-1.95-.311h-2.282V263.7h-6.461v.022Zm13.95-10.928 5.946 10.928h-7.018l-5.807-10.928h6.879Zm7.082 10.928v-23.807h6.46v9.621h.321l7.157-9.621h7.532l-8.046 10.596 8.228 13.2h-7.714l-5.346-8.925-2.143 2.786v6.139h-6.46l.011.011Zm24.824.621v-23.806h8.046c1.864 0 3.396.332 4.586 1.007 1.189.675 2.067 1.575 2.646 2.71.579 1.136.857 2.411.857 3.815 0 1.403-.289 2.678-.857 3.825-.568 1.146-1.446 2.057-2.636 2.732-1.189.675-2.7 1.017-4.553 1.017h-5.764v-2.56h5.667c1.275 0 2.304-.225 3.086-.664.771-.44 1.339-1.04 1.693-1.8.353-.761.525-1.607.525-2.561s-.172-1.811-.525-2.561c-.354-.75-.922-1.339-1.704-1.767-.782-.429-1.821-.643-3.117-.643h-5.068v21.245h-2.882v.011Zm40.863-11.903c0 2.507-.45 4.682-1.361 6.514-.91 1.832-2.153 3.236-3.728 4.232-1.575.996-3.386 1.489-5.421 1.489-2.036 0-3.836-.493-5.422-1.489-1.585-.996-2.828-2.4-3.728-4.232-.911-1.832-1.361-3.996-1.361-6.514 0-2.518.45-4.682 1.361-6.514.91-1.832 2.153-3.236 3.728-4.232 1.575-.997 3.386-1.489 5.422-1.489 2.035 0 3.835.492 5.421 1.489 1.585.996 2.828 2.4 3.728 4.232.911 1.832 1.361 3.996 1.361 6.514Zm-2.786 0c0-2.057-.343-3.804-1.028-5.218-.686-1.414-1.607-2.496-2.775-3.214-1.168-.729-2.475-1.093-3.911-1.093-1.435 0-2.743.364-3.91 1.093-1.168.729-2.09 1.8-2.775 3.214-.686 1.414-1.029 3.161-1.029 5.218s.343 3.803 1.029 5.218c.685 1.414 1.607 2.496 2.775 3.214 1.167.728 2.475 1.093 3.91 1.093 1.436 0 2.743-.365 3.911-1.093 1.168-.729 2.089-1.8 2.775-3.214.685-1.415 1.028-3.161 1.028-5.218Zm14.968 11.903h-7.35v-23.806h7.671c2.314 0 4.286.471 5.925 1.425 1.639.953 2.903 2.314 3.782 4.082.879 1.768 1.318 3.889 1.318 6.353s-.439 4.607-1.329 6.396c-.889 1.79-2.175 3.161-3.857 4.115-1.693.953-3.739 1.435-6.16 1.435Zm-4.468-2.56h4.275c1.971 0 3.6-.375 4.896-1.136 1.297-.761 2.261-1.843 2.893-3.246.632-1.404.953-3.075.953-5.015 0-1.939-.31-3.578-.942-4.971-.632-1.393-1.565-2.464-2.818-3.203-1.243-.75-2.796-1.125-4.661-1.125h-4.607v18.696h.011Zm39.802-13.8h-2.882a6.209 6.209 0 0 0-.889-2.186 5.992 5.992 0 0 0-1.532-1.585 6.883 6.883 0 0 0-1.993-.975 8.016 8.016 0 0 0-2.282-.322c-1.436 0-2.743.364-3.91 1.093-1.168.729-2.09 1.8-2.775 3.214-.686 1.414-1.029 3.161-1.029 5.218s.343 3.803 1.029 5.218c.685 1.414 1.607 2.496 2.775 3.214 1.167.728 2.474 1.093 3.91 1.093.793 0 1.554-.107 2.282-.322a6.367 6.367 0 0 0 3.525-2.571 6.238 6.238 0 0 0 .889-2.175h2.882c-.214 1.221-.61 2.303-1.189 3.268a8.727 8.727 0 0 1-2.143 2.443 9.45 9.45 0 0 1-2.86 1.532c-1.05.353-2.186.525-3.386.525-2.025 0-3.835-.493-5.421-1.49-1.586-.996-2.829-2.4-3.729-4.232-.91-1.832-1.36-3.996-1.36-6.514 0-2.518.45-4.682 1.36-6.514.911-1.832 2.154-3.235 3.729-4.232 1.575-.996 3.385-1.489 5.421-1.489 1.2 0 2.336.171 3.386.525a9.3 9.3 0 0 1 2.86 1.532 8.699 8.699 0 0 1 2.143 2.443c.579.953.964 2.046 1.189 3.268v.021Zm5.625 16.36h-3.021l8.743-23.806h2.978l8.743 23.806h-3.022l-7.114-20.035h-.182l-7.114 20.035h-.011Zm1.115-9.3h12.181v2.561h-12.181v-2.561Zm33.063-8.549c-.139-1.179-.707-2.09-1.693-2.743-.986-.654-2.207-.975-3.653-.975-1.05 0-1.972.171-2.765.514-.782.343-1.403.814-1.832 1.404a3.348 3.348 0 0 0-.653 2.035c0 .633.15 1.179.46 1.629.311.45.697.825 1.179 1.125.482.3.986.546 1.511.728a15.9 15.9 0 0 0 1.457.461l2.421.654c.622.16 1.307.385 2.079.675.76.289 1.5.675 2.196 1.168a6.228 6.228 0 0 1 1.736 1.885c.46.772.685 1.704.685 2.829 0 1.285-.332 2.453-1.007 3.482-.675 1.039-1.65 1.864-2.925 2.475-1.285.61-2.839.921-4.671.921-1.704 0-3.182-.279-4.425-.825-1.243-.546-2.218-1.318-2.925-2.303-.707-.986-1.114-2.133-1.2-3.429h2.979c.075.9.385 1.639.91 2.229.536.589 1.2 1.017 2.025 1.296a8.103 8.103 0 0 0 2.647.429c1.103 0 2.089-.183 2.967-.536.879-.364 1.565-.868 2.079-1.511.514-.643.771-1.403.771-2.271 0-.793-.225-1.436-.664-1.929-.439-.493-1.028-.9-1.746-1.21a18.61 18.61 0 0 0-2.336-.815l-2.925-.835c-1.864-.536-3.332-1.297-4.414-2.293-1.082-.997-1.628-2.293-1.628-3.889 0-1.329.364-2.497 1.082-3.493.728-.996 1.703-1.768 2.925-2.325 1.232-.557 2.603-.836 4.124-.836 1.522 0 2.904.268 4.093.815 1.189.546 2.143 1.296 2.839 2.239a5.626 5.626 0 0 1 1.115 3.214h-2.786l-.032.011Zm6.557-3.397v-2.56h17.849v2.56h-7.489v21.246h-2.882v-21.246h-7.489.011Z"/><path fill="#C02026" d="M64.53 235.148a1.308 1.308 0 0 1-.557.139H62.87c-1.297 0-2.786-.204-4.49-.622a44.374 44.374 0 0 1-4.97-1.521c-1.619-.6-3-1.264-4.147-2.003-1.157-.74-1.864-1.383-2.143-1.94a53.938 53.938 0 0 1-.14-4.007v-4.007c0-10.317.762-21.096 2.283-32.335 1.521-11.238 4.028-23.399 7.532-36.481.364-1.285.76-2.925 1.178-4.907.418-1.982.847-4.124 1.318-6.428-2.207 1.746-4.832 4.543-7.875 8.357-3.042 3.825-6.246 8.335-9.6 13.542-3.364 5.207-6.728 10.918-10.092 17.143a238.52 238.52 0 0 0-9.192 18.931c-2.765 6.407-5.133 12.739-7.115 19.007-1.982 6.268-3.203 12.064-3.664 17.41-4.425-1.296-7.489-2.582-9.192-3.868C.857 230.262 0 228.698 0 226.855c0-1.661.504-4.007 1.521-7.05 1.018-3.043 2.443-6.632 4.286-10.778 1.843-4.146 4.103-8.775 6.771-13.885a923.309 923.309 0 0 1 8.85-16.521c3.686-6.729 7.296-13.039 10.853-18.932 3.547-5.893 7.029-11.239 10.436-16.028 3.407-4.789 6.75-8.936 10.017-12.439 3.268-3.503 6.514-6.171 9.74-8.014 1.285 0 3.02.321 5.185.964a51.87 51.87 0 0 1 6.353 2.347c2.079.921 3.91 1.864 5.529 2.828 1.607.964 2.507 1.779 2.7 2.421-1.297 2.582-2.808 6.45-4.565 11.604-1.746 5.164-3.525 11.014-5.325 17.549-1.8 6.546-3.503 13.478-5.11 20.796-1.618 7.328-2.882 14.346-3.803 21.074 2.12-5.067 4.585-10.339 7.392-15.824a350.567 350.567 0 0 1 8.914-16.307 381.598 381.598 0 0 1 9.61-15.685c3.268-5.068 6.472-9.696 9.6-13.885 3.129-4.19 6.054-7.854 8.775-10.982 2.721-3.129 5.132-5.432 7.253-6.911 1.286 0 3.022.322 5.186.964a51.828 51.828 0 0 1 6.353 2.347c2.079.921 3.911 1.864 5.529 2.828 1.607.965 2.507 1.779 2.7 2.422-2.947 5.25-5.529 11.656-7.736 19.21-2.207 7.553-4.082 15.482-5.592 23.774-1.522 8.293-2.679 16.51-3.45 24.664-.782 8.153-1.179 15.46-1.179 21.91v6.632c0 2.303.086 4.703.279 7.189-1.297 0-2.829-.161-4.629-.482a38.91 38.91 0 0 1-5.25-1.318 34.872 34.872 0 0 1-4.628-1.864c-1.382-.686-2.346-1.447-2.904-2.282a53.957 53.957 0 0 1-.139-4.007v-4.007c0-10.318.761-21.096 2.282-32.335 1.522-11.239 4.029-23.4 7.532-36.481.364-1.286.782-3.043 1.243-5.25a437.33 437.33 0 0 0 1.382-6.911c-2.582 1.297-5.507 3.75-8.775 7.393-3.267 3.643-6.589 8.068-9.953 13.264-3.364 5.207-6.686 10.982-9.953 17.346a227.006 227.006 0 0 0-8.85 19.414 189.786 189.786 0 0 0-6.632 19.628c-1.8 6.492-2.882 12.46-3.246 17.892l-.022.011Z"/><path fill="#C02026" d="M178.956 203.498c-2.122 6.729-4.243 12.857-6.354 18.386-2.121 5.528-4.382 10.617-6.771 15.267-2.4 4.65-4.971 8.936-7.736 12.857a101.494 101.494 0 0 1-9.117 11.121c-4.243 4.425-8.614 7.81-13.125 10.157-4.51 2.346-9.032 3.525-13.542 3.525-2.304 0-4.586-.257-6.846-.761a34.485 34.485 0 0 1-6.354-2.068c-1.982-.878-3.728-1.885-5.25-3.043-1.521-1.157-2.603-2.367-3.246-3.664 0-1.103.643-2.068 1.939-2.903 1.104 1.018 2.025 1.8 2.764 2.346.74.557 1.447 1.018 2.143 1.382a6.16 6.16 0 0 0 2.207.686c.782.086 1.682.139 2.7.139 5.25 0 10.382-1.543 15.407-4.628 5.025-3.086 9.76-7.468 14.239-13.125 4.468-5.668 8.55-12.535 12.235-20.592 3.686-8.057 6.814-17.067 9.396-27.021-1.2 1.843-2.678 4.093-4.425 6.75a98.08 98.08 0 0 1-5.807 7.928 68.962 68.962 0 0 1-6.567 7.093c-2.261 2.111-4.447 3.536-6.568 4.275-1.478 0-3.021-.257-4.628-.761a19.109 19.109 0 0 1-4.564-2.153 17.154 17.154 0 0 1-3.804-3.343 10.124 10.124 0 0 1-2.207-4.446c0-2.668.086-4.811.279-6.429.182-1.607.503-3.385.964-5.325.825-3.503 2.046-7.467 3.664-11.881a119.233 119.233 0 0 1 5.668-13.061 96.138 96.138 0 0 1 7.189-12.021c2.625-3.728 5.367-6.653 8.217-8.775.74 0 1.661.065 2.765.204a20.59 20.59 0 0 1 3.449.761c1.2.364 2.347.803 3.45 1.307a9.875 9.875 0 0 1 2.904 2.003c-1.018.922-3.225 4.007-6.632 9.257-3.407 5.25-7.189 12.803-11.335 22.66-.461 1.018-1.018 2.486-1.661 4.425a142.56 142.56 0 0 0-1.864 6.086 123.57 123.57 0 0 0-1.586 6.214c-.461 2.025-.696 3.643-.696 4.832 0 .739.117 1.296.342 1.66.225.365.44.643.622.825 1.66-.278 3.868-1.639 6.632-4.082 2.764-2.442 5.892-6.235 9.396-11.399a164.333 164.333 0 0 0 6.085-9.879 720.921 720.921 0 0 0 5.465-9.878c1.8-3.31 3.664-6.728 5.592-10.232a368.683 368.683 0 0 1 6.214-10.778c1.2 0 2.486.139 3.868.418 1.382.278 2.722.621 4.007 1.039 1.286.418 2.422.879 3.386 1.382.964.504 1.682 1.04 2.143 1.586a556.123 556.123 0 0 0-8.014 17.828 194.69 194.69 0 0 0-6.632 17.828v.021Zm9.535-2.903c0-5.25 1.082-10.339 3.246-15.267 2.165-4.929 5.025-9.3 8.572-13.125 3.546-3.825 7.596-6.911 12.16-9.257s9.278-3.525 14.164-3.525c4.885 0 8.475 1.2 11.057 3.589 2.582 2.4 3.867 5.807 3.867 10.232 0 2.122-.3 4.168-.9 6.15-.6 1.982-1.382 3.75-2.346 5.325-.964 1.564-2.1 2.828-3.386 3.803-1.296.965-2.582 1.447-3.867 1.447-1.104 0-2.24-.343-3.386-1.04a8.616 8.616 0 0 1-2.828-2.699c6.171-5.615 9.256-10.736 9.256-15.343 0-2.668-1.06-4.007-3.182-4.007-1.842 0-4.146.879-6.91 2.625-2.764 1.746-5.443 4.061-8.014 6.911-3.964 4.424-6.975 9.331-9.053 14.721-2.068 5.389-3.108 11.035-3.108 16.928 0 7.467 1.661 11.935 4.972 13.403 1.382-.182 2.989-.6 4.842-1.243 1.843-.643 3.825-1.5 5.947-2.561a88.276 88.276 0 0 0 6.567-3.664 87.781 87.781 0 0 0 6.568-4.425c.364.279.686.697.964 1.243.279.557.418 1.061.418 1.522-1.564 1.939-3.364 3.824-5.389 5.667a60.158 60.158 0 0 1-6.353 5.046c-2.207 1.522-4.35 2.808-6.429 3.868-2.068 1.061-3.889 1.725-5.453 2.004-3.043-.279-5.893-1.222-8.571-2.829-2.679-1.607-5.004-3.707-6.975-6.289-1.982-2.582-3.546-5.528-4.704-8.85-1.157-3.321-1.725-6.771-1.725-10.36h-.021Zm99.779-32.892c-.364 5.711-1.382 10.618-3.042 14.721-1.661 4.104-4.029 7.693-7.115 10.778-3.085 3.086-6.835 5.872-11.26 8.357-4.425 2.486-9.578 4.886-15.482 7.189 0 .557-.021 1.125-.064 1.725-.043.6-.064 1.222-.064 1.865 0 1.199.086 2.442.278 3.728.183 1.296.504 2.486.965 3.589.46 1.104 1.103 2.004 1.939 2.689.825.697 1.886 1.04 3.182 1.04 2.486 0 4.928-.557 7.328-1.661a37.684 37.684 0 0 0 6.836-4.082 55.804 55.804 0 0 0 6.085-5.25 212.479 212.479 0 0 0 5.047-5.185 28.433 28.433 0 0 1 2.346 2.346c-4.146 5.528-8.689 10.114-13.617 13.746-4.929 3.643-9.6 5.968-14.025 6.975-6.353-.74-11.314-3.064-14.86-6.975-3.547-3.911-5.325-8.636-5.325-14.164 0-3.782.525-7.618 1.585-11.539a56.526 56.526 0 0 1 4.425-11.335 65.357 65.357 0 0 1 6.632-10.296c2.529-3.225 5.25-6.032 8.154-8.432 2.903-2.4 5.892-4.286 8.978-5.668 3.086-1.382 6.15-2.079 9.193-2.079 4.232.558 8.196 3.183 11.881 7.875v.043Zm-9.535 4.564c-2.486.364-5.068 1.382-7.736 3.043-2.678 1.661-5.185 3.868-7.532 6.632-2.346 2.764-4.489 5.989-6.428 9.675-1.939 3.685-3.45 7.649-4.564 11.881 7.371-3.685 13.5-8.217 18.385-13.617 4.886-5.389 7.511-11.26 7.875-17.624v.01Zm8.85 43.81c0-4.05.964-9.739 2.903-17.068 1.939-7.328 4.65-15.867 8.153-25.638 5.711-15.568 11.079-28.542 16.104-38.903 5.024-10.36 9.931-18.449 14.721-24.256 1.103.182 2.464.643 4.071 1.382a66.703 66.703 0 0 1 4.768 2.421 39.947 39.947 0 0 1 4.21 2.7c1.243.922 2.047 1.661 2.422 2.207a169.908 169.908 0 0 0-18.932 27.364c-5.443 9.771-10.414 20.956-14.925 33.577-3.867 10.875-6.824 20.657-8.839 29.367-2.025 8.711-3.042 15.964-3.042 21.771v2.904c0 .364.042.739.139 1.103-1.297-.182-2.4-.503-3.321-.964-.922-.461-1.522-1.018-1.8-1.661-.183-.46-.697-1.125-1.522-2.003-.825-.879-1.564-1.543-2.207-2.004-.825-.557-1.521-2.003-2.068-4.35-.557-2.346-.825-4.992-.825-7.949h-.01Zm25.981-.418c0-.825.064-1.864.204-3.107.139-1.243.385-2.904.76-4.972.365-2.067.847-4.585 1.447-7.531.6-2.947 1.36-6.493 2.282-10.639.182-.922.6-2.4 1.243-4.425.642-2.025 1.5-4.168 2.56-6.429a41.552 41.552 0 0 1 3.868-6.567c1.521-2.122 3.343-3.686 5.464-4.704 1.564.365 3.643 1.318 6.214 2.829 2.582 1.521 4.789 3.621 6.632 6.289-2.121 2.4-3.889 4.789-5.325 7.189a71.193 71.193 0 0 0-3.867 7.468 103.93 103.93 0 0 0-3.182 8.014 256.002 256.002 0 0 1-3.247 8.71 103.486 103.486 0 0 0-2.764 7.95c-.825 2.721-1.296 5.089-1.382 7.114 0 1.661-.022 2.828-.064 3.525-.043.686-.3 1.039-.761 1.039-.364 0-1.104-.236-2.207-.696-1.104-.461-2.239-1.179-3.386-2.143-1.157-.964-2.185-2.186-3.107-3.664-.921-1.468-1.382-3.225-1.382-5.25Zm26.399-59.977c0-.557.14-1.382.418-2.486-.461-.46-.857-1.146-1.178-2.067-.322-.922-.483-1.747-.483-2.486 0-.825.118-1.961.343-3.386a72.4 72.4 0 0 1 .9-4.628 64.11 64.11 0 0 1 1.382-5.186 86.77 86.77 0 0 1 1.661-4.907c1.104 0 2.464.3 4.082.9 1.607.6 3.246 1.382 4.907 2.347a32.51 32.51 0 0 1 4.564 3.182c1.382 1.157 2.443 2.239 3.182 3.246-1.018 1.018-2.346 2.421-4.007 4.211a96.552 96.552 0 0 0-4.832 5.667c-1.564 1.982-3 3.847-4.285 5.593-1.297 1.746-2.122 2.989-2.486 3.728a5.414 5.414 0 0 1-2.903-1.446c-.825-.782-1.243-1.543-1.243-2.282h-.022Zm36.749 66.202c-1.746-1.468-2.925-3.322-3.525-5.529-.6-2.207-.9-4.103-.9-5.667 0-1.94.225-3.59.697-4.972-.365 0-1.2.74-2.486 2.207-1.296 1.468-2.7 3.215-4.21 5.24a1231.644 1231.644 0 0 1-4.49 5.924c-1.478 1.929-2.582 3.354-3.321 4.264-1.2 1.286-2.325 2.293-3.386 3.033-1.06.728-1.917 1.146-2.56 1.242-1.479 0-3.022-.257-4.629-.76a19.148 19.148 0 0 1-4.564-2.154 15.622 15.622 0 0 1-3.728-3.343 10.474 10.474 0 0 1-2.143-4.446c0-2.582.064-4.703.203-6.353.14-1.661.44-3.45.9-5.389.825-3.504 2.047-7.468 3.665-11.882a130.216 130.216 0 0 1 5.592-13.061c2.122-4.285 4.489-8.292 7.114-12.021 2.625-3.728 5.411-6.653 8.357-8.774.825 0 1.8.064 2.904.203a19.35 19.35 0 0 1 3.385.761 26.29 26.29 0 0 1 3.322 1.307 8.331 8.331 0 0 1 2.689 2.003c-.825.922-2.925 4.008-6.289 9.257-3.364 5.25-7.114 12.804-11.261 22.66-.46 1.018-1.017 2.486-1.66 4.425a241.89 241.89 0 0 0-1.939 6.086 66.918 66.918 0 0 0-1.586 6.214c-.418 2.025-.622 3.643-.622 4.832 0 .739.118 1.296.343 1.661.225.364.44.642.622.825 1.382-.558 3.128-2.079 5.25-4.565 2.121-2.485 5.067-6.31 8.839-11.474a264.186 264.186 0 0 1 3.246-4.425 152.655 152.655 0 0 0 3.803-5.325 87.672 87.672 0 0 0 3.665-5.871c1.146-2.025 2.1-4.05 2.828-6.086a75.637 75.637 0 0 1 1.447-3.943 49.751 49.751 0 0 1 2.207-4.767 53.415 53.415 0 0 1 3.042-5.047 28.322 28.322 0 0 1 4.072-4.767c1.2 0 2.485.139 3.867.418 1.383.278 2.7.621 3.943 1.039 1.243.418 2.325.878 3.246 1.382.922.504 1.608 1.039 2.079 1.586a155.683 155.683 0 0 1-5.528 12.021 295.12 295.12 0 0 0-5.668 11.678 101.729 101.729 0 0 0-4.425 11.4c-1.2 3.782-1.8 7.467-1.8 11.056 0 1.94.161 3.622.482 5.047.322 1.425.664 2.625 1.039 3.589a26.35 26.35 0 0 0 1.04 2.421c.321.643.482 1.2.482 1.661 0 .086-.097.225-.279.418-.096.086-.182.139-.278.139-.643 0-1.479-.139-2.486-.418a28.682 28.682 0 0 1-3.386-1.178 44.753 44.753 0 0 1-3.728-1.725 38.719 38.719 0 0 1-3.525-2.068l.032.011Zm103.101-39.321c-1.479 0-3.268.9-5.389 2.7-2.122 1.8-4.404 4.104-6.836 6.922a202.869 202.869 0 0 0-7.596 9.342 416.911 416.911 0 0 0-7.596 10.178 1481.608 1481.608 0 0 0-6.836 9.482c-2.121 2.957-3.921 5.304-5.389 7.061a14.411 14.411 0 0 1-5.25-3.664c-1.478-1.607-2.539-3.611-3.182-6.011a87.74 87.74 0 0 1 1.939-8.903c.825-3.075 1.908-6.279 3.247-9.589 1.339-3.311 2.989-6.782 4.971-10.414 1.982-3.632 4.404-7.479 7.253-11.518-1.382 0-3.267.943-5.667 2.839-2.4 1.897-4.972 4.34-7.736 7.34-2.764 2.999-5.625 6.364-8.571 10.103a305.736 305.736 0 0 0-8.293 11.003c-3.407 4.8-6.246 9-8.496 12.589-2.26 3.6-3.889 5.721-4.907 6.364-2.4-1.746-4.06-3.643-4.971-5.668-.921-2.025-1.618-4.285-2.079-6.771.086-2.207.44-4.971 1.04-8.293a81.064 81.064 0 0 1 2.56-10.221c2.122-6.728 4.854-13.403 8.218-20.035s6.611-12.717 9.739-18.246c2.582.557 4.907 1.425 6.975 2.625 2.078 1.2 4.264 2.947 6.567 5.25-.921 2.861-2.346 5.871-4.285 9.053a4459.705 4459.705 0 0 0-6.086 10.018 120.301 120.301 0 0 0-5.807 10.778c-1.746 3.686-2.903 7.414-3.45 11.196 2.582-3.685 5.647-7.917 9.193-12.717a205.055 205.055 0 0 1 10.918-13.543c3.728-4.232 7.435-7.832 11.121-10.778 3.685-2.946 6.996-4.425 9.953-4.425 1.104 0 2.304.182 3.589.557 1.286.365 2.486.825 3.589 1.382 1.104.558 2.025 1.083 2.765 1.586.739.504 1.146.9 1.242 1.179-.46 1.843-1.542 4.35-3.246 7.532a981.673 981.673 0 0 1-5.453 10.017 322.167 322.167 0 0 0-5.389 10.157c-1.661 3.268-2.625 5.871-2.904 7.811a574.043 574.043 0 0 1 12.717-16.789c3.965-5.025 7.693-9.332 11.197-12.921 3.503-3.59 6.749-6.354 9.739-8.293 2.989-1.939 5.828-2.903 8.496-2.903 1.843 0 3.568.482 5.185 1.446 1.607.964 2.743 2.368 3.386 4.211-.825 2.764-2.186 6.085-4.071 9.953a437.978 437.978 0 0 0-5.732 12.235 186.395 186.395 0 0 0-5.186 12.643c-1.521 4.146-2.282 7.874-2.282 11.196 0 1.939.279 3.203.825 3.803.557.6 1.339.9 2.346.9 1.104 0 2.143-.203 3.107-.621.965-.418 1.683-.622 2.143-.622.557.365.879.825.964 1.383.086.557.14 1.06.14 1.521-1.843 1.478-3.729 2.7-5.668 3.664s-4.103 1.446-6.493 1.446c-2.207 0-4.028-.364-5.464-1.103a9.845 9.845 0 0 1-3.525-3.032c-.921-1.286-1.564-2.764-1.939-4.414-.364-1.65-.557-3.45-.557-5.379 0-3.128.418-6.235 1.243-9.31a73.425 73.425 0 0 1 2.968-8.828 86.24 86.24 0 0 1 3.664-7.865 204.737 204.737 0 0 0 3.321-6.556l.011-.033Z"/><path fill="#1D1D44" d="M313.973 71.063c-44.131 25.167-104 .59-104-12.31 0-3.943 27.834 13.51 51.887-4.136 18.236-13.371 31.767-3.9 52.113 16.446Z"/><path fill="#1D1D44" d="M287.831 71.845c1.104 50.795-49.027 91.722-60.363 85.573-5.335-2.893 47.753-55.392 24.836-84.812"/><path fill="#1D1D44" d="M189.97 62.77c-5.957 4.457 51.02-75.951 104.472-60.887 41.741 11.774 61.626 69.32 53.28 76.84-7.853 7.082-54.191-49.67-80.987-34.906-36.031 19.853-41.066-7.778-76.765 18.953Zm61.701 43.296c-15.074 17.496-44.463 16.081-46.423 10.553-.6-1.693 13.981 1.553 21.599-9.664 5.775-8.507 13.018-6.504 24.824-.889Z"/><path fill="#1D1D44" d="M240.593 110.373c8.207 21.588-7.039 46.755-12.835 45.845-2.722-.429 12.032-30.996-2.272-40.113"/><path fill="#1D1D44" d="M197.298 121.387c-1.875 2.817 10.296-40.296 35.485-41.978 19.67-1.307 36.941 20.314 34.52 24.814-2.293 4.232-30.77-13.028-40.006-2.625-12.417 13.992-18.771 2.914-29.999 19.799v-.01Z"/></g><defs><clipPath id="a"><path fill="#fff" d="M0 0h500v275H0z"/></clipPath></defs></svg>
