<?xml version="1.0" standalone="no"?>
<!DOCTYPE svg PUBLIC "-//W3C//DTD SVG 20010904//EN"
 "http://www.w3.org/TR/2001/REC-SVG-20010904/DTD/svg10.dtd">
<svg version="1.0" xmlns="http://www.w3.org/2000/svg"
 width="700.000000pt" height="700.000000pt" viewBox="0 0 700.000000 700.000000"
 preserveAspectRatio="xMidYMid meet">
<metadata>
Created by potrace 1.14, written by Peter Selinger 2001-2017
</metadata>
<g transform="translate(0.000000,700.000000) scale(0.100000,-0.100000)"
fill="#000000" stroke="none">
<path d="M3867 6544 c-1 -1 -42 -5 -91 -8 -573 -44 -1166 -298 -1801 -773
-264 -197 -474 -381 -755 -663 -201 -201 -271 -276 -413 -444 -23 -27 -47 -54
-52 -60 -69 -74 -286 -370 -319 -434 -21 -41 -14 -52 17 -25 12 11 78 58 147
103 69 45 136 90 150 100 14 9 90 49 170 87 201 99 362 150 535 170 110 13
384 6 495 -12 193 -32 536 -37 685 -9 152 28 336 81 422 120 17 8 34 14 38 14
3 0 97 45 208 100 250 123 307 139 492 136 148 -3 237 -20 405 -76 169 -56
420 -178 605 -295 252 -159 394 -259 875 -621 494 -371 621 -451 738 -461 52
-5 61 -3 89 21 51 43 66 94 69 236 3 169 -25 325 -102 565 -173 535 -513 1087
-915 1485 -139 138 -397 350 -426 350 -6 0 -13 4 -15 8 -5 14 -196 125 -298
174 -203 97 -389 154 -620 192 -46 7 -327 24 -333 20z"/>
<path d="M3670 4660 c-145 -30 -265 -85 -425 -193 -165 -112 -189 -126 -281
-172 -155 -76 -341 -131 -514 -152 -82 -10 -362 -10 -455 0 -113 12 -279 45
-465 94 -279 72 -318 79 -321 50 -5 -55 28 -128 91 -200 42 -48 166 -148 248
-201 72 -46 281 -150 387 -194 192 -78 500 -173 645 -198 14 -3 41 -9 60 -14
29 -8 131 -26 252 -47 32 -5 75 -10 100 -12 22 -1 47 -108 62 -263 3 -27 2
-48 0 -48 -3 0 -42 29 -87 64 -268 209 -570 320 -842 311 -115 -4 -152 -10
-250 -41 -354 -114 -677 -450 -944 -983 -88 -174 -199 -466 -215 -561 l-5 -35
22 29 c85 113 151 188 210 238 84 70 215 135 307 153 42 8 178 45 227 61 118
39 221 110 355 243 53 54 117 107 140 119 142 70 361 68 655 -7 84 -22 342
-99 354 -107 12 -7 -79 -271 -141 -409 -88 -198 -258 -515 -358 -670 l-33 -50
6 45 c16 120 21 201 19 289 -4 140 -11 205 -39 328 -4 17 8 29 68 67 92 58
123 83 224 180 46 44 80 83 76 87 -5 4 -60 30 -123 57 -437 192 -630 170 -826
-94 -155 -210 -354 -312 -663 -339 -174 -16 -176 -16 -161 -46 26 -48 150
-101 275 -116 134 -17 406 -8 536 18 30 6 61 12 69 13 26 5 75 -82 104 -184
47 -168 41 -410 -19 -690 -17 -78 -17 -78 -34 -150 -7 -25 -13 -52 -15 -60 -2
-8 -9 -35 -16 -60 -15 -57 -15 -57 -41 -175 -34 -157 -34 -154 43 -171 161
-37 472 107 803 372 96 78 395 365 481 464 56 64 204 252 236 299 17 25 35 48
39 51 12 9 175 264 236 370 154 268 303 628 369 890 42 170 76 349 89 470 4
30 9 58 13 61 4 3 48 14 97 24 251 50 520 143 764 263 l154 76 -140 136 c-120
117 -173 166 -303 281 -270 238 -546 395 -785 445 -64 14 -236 11 -315 -6z"/>
</g>
</svg>
