<?xml version="1.0" standalone="no"?>
<!DOCTYPE svg PUBLIC "-//W3C//DTD SVG 20010904//EN"
 "http://www.w3.org/TR/2001/REC-SVG-20010904/DTD/svg10.dtd">
<svg version="1.0" xmlns="http://www.w3.org/2000/svg"
 width="700.000000pt" height="700.000000pt" viewBox="0 0 700.000000 700.000000"
 preserveAspectRatio="xMidYMid meet">
<metadata>
Created by potrace 1.14, written by Peter Selinger 2001-2017
</metadata>
<g transform="translate(0.000000,700.000000) scale(0.100000,-0.100000)"
fill="#000000" stroke="none">
<path d="M2847 6184 c-1 -1 -49 -4 -107 -8 -156 -9 -331 -36 -475 -73 -33 -8
-67 -16 -75 -18 -72 -15 -318 -109 -440 -168 -384 -186 -668 -420 -979 -802
-34 -43 -120 -174 -170 -260 -28 -49 -56 -97 -61 -105 -6 -8 -13 -22 -16 -30
-3 -8 -14 -31 -24 -50 -63 -121 -152 -374 -194 -550 -26 -109 -30 -131 -42
-215 -3 -27 -8 -59 -10 -70 -18 -95 -24 -433 -10 -570 5 -44 9 -89 11 -100 4
-50 18 -135 31 -190 7 -33 15 -71 18 -85 22 -107 108 -373 127 -395 5 -5 9
-15 9 -22 0 -28 169 -356 198 -385 7 -7 12 -16 12 -20 0 -14 89 -137 185 -258
272 -339 627 -603 1070 -794 150 -65 474 -152 640 -171 32 -4 68 -9 80 -12 51
-12 467 -10 577 2 441 51 850 199 1203 438 143 96 223 160 358 287 l69 65 97
1 c114 1 219 11 311 29 69 14 60 12 191 45 116 30 411 165 484 222 6 4 46 33
89 64 44 31 93 68 109 82 69 62 195 191 232 237 22 28 45 55 50 61 9 9 70 102
131 199 25 41 92 179 115 240 11 28 23 59 28 70 23 53 61 203 85 338 35 201
25 487 -25 707 -172 745 -791 1322 -1539 1435 -87 13 -113 15 -234 20 l-129 5
-56 55 c-73 71 -118 111 -161 144 -19 14 -44 34 -55 45 -44 41 -307 208 -410
261 -93 47 -156 74 -350 150 -11 5 -22 9 -25 10 -3 0 -36 10 -75 22 -179 55
-412 99 -584 109 -103 6 -261 11 -264 8z m289 -817 c12 -3 45 -8 75 -12 137
-17 357 -87 519 -164 57 -27 170 -91 170 -96 0 -1 -51 -40 -112 -86 -281 -209
-505 -495 -629 -806 -48 -121 -91 -269 -105 -361 -3 -20 -7 -43 -9 -50 -18
-52 -25 -345 -12 -482 10 -108 14 -131 49 -270 108 -436 385 -832 755 -1083
34 -23 61 -46 59 -52 -4 -15 -236 -129 -335 -166 -259 -94 -534 -130 -811
-106 -111 10 -134 14 -220 32 -14 3 -34 7 -45 9 -176 37 -417 141 -600 261
-433 283 -739 752 -820 1255 -4 25 -10 54 -12 65 -13 51 -11 405 3 498 81 572
405 1062 895 1358 163 98 305 157 502 208 112 30 150 37 262 48 33 3 62 7 63
8 6 5 335 -3 358 -8z"/>
</g>
</svg>
